M48
; DRILL file {KiCad (6.0.1)} date Mon Jan 24 11:32:53 2022
; FORMAT={-:-/ absolute / inch / decimal}
; #@! TF.CreationDate,2022-01-24T11:32:53-05:00
; #@! TF.GenerationSoftware,Kicad,Pcbnew,(6.0.1)
; #@! TF.FileFunction,NonPlated,1,2,NPTH
FMAT,2
INCH
; #@! TA.AperFunction,NonPlated,NPTH,ComponentDrill
T1C0.0591
; #@! TA.AperFunction,NonPlated,NPTH,ComponentDrill
T2C0.0689
; #@! TA.AperFunction,NonPlated,NPTH,ComponentDrill
T3C0.1200
; #@! TA.AperFunction,NonPlated,NPTH,ComponentDrill
T4C0.1570
%
G90
G05
T2
X3.3283Y-3.798
X3.467Y-2.298
X3.4783Y-1.548
X3.542Y-3.048
X3.7283Y-3.798
X3.867Y-2.298
X3.8783Y-1.548
X3.942Y-3.048
X4.2688Y-1.539
X4.3502Y-2.3078
X4.6171Y-3.1027
X4.6649Y-1.5947
X4.7463Y-2.3635
X5.0116Y-1.6434
X5.0133Y-3.1584
X5.0698Y-3.9237
X5.0929Y-2.4122
X5.3598Y-3.2071
X5.4077Y-1.6991
X5.4659Y-3.9794
X5.489Y-2.4679
X5.7543Y-1.7478
X5.756Y-3.2628
X5.8356Y-2.5166
X6.1025Y-3.3115
X6.1504Y-1.8035
X6.2317Y-2.5723
X6.2767Y-4.0933
X6.497Y-1.8522
X6.4987Y-3.3672
X6.5783Y-2.621
X6.6728Y-4.149
X6.8452Y-3.4159
X6.8931Y-1.9079
X6.9744Y-2.6766
X7.2414Y-3.4715
X7.8887Y-1.9529
X7.9118Y-3.4644
X8.1787Y-2.6695
X8.2848Y-1.8972
X8.3079Y-3.4087
X8.3875Y-4.1549
X8.5748Y-2.6138
X8.6314Y-1.8485
X8.6545Y-3.36
X8.7836Y-4.0992
X8.9214Y-2.5651
X9.0275Y-1.7928
X9.0506Y-3.3043
X9.3175Y-2.5095
X9.3741Y-1.7441
X9.3972Y-3.2556
X9.5015Y-3.9983
X9.6641Y-2.4607
X9.7702Y-1.6885
X9.7933Y-3.2
X9.8977Y-3.9427
X10.0602Y-2.4051
X10.1168Y-1.6398
X10.1399Y-3.1513
X10.4068Y-2.3564
X10.5129Y-1.5841
X10.536Y-3.0956
X10.8029Y-2.3007
X10.997Y-1.548
X11.1133Y-3.048
X11.1958Y-2.298
X11.2258Y-3.798
X11.397Y-1.548
X11.5133Y-3.048
X11.5958Y-2.298
X11.6258Y-3.798
T3
X5.9723Y-4.3283
X6.9006Y-4.4587
X8.1596Y-4.4646
X9.088Y-4.3342
T4
X3.5283Y-3.798
X3.667Y-2.298
X3.6783Y-1.548
X3.742Y-3.048
X4.4668Y-1.5669
X4.5482Y-2.3357
X4.8152Y-3.1306
X5.2096Y-1.6713
X5.2678Y-3.9516
X5.2909Y-2.4401
X5.5579Y-3.2349
X5.9523Y-1.7756
X6.0336Y-2.5444
X6.0558Y-3.7341
X6.3006Y-3.3393
X6.4747Y-4.1212
X6.695Y-1.88
X6.7763Y-2.6488
X6.9842Y-3.8646
X7.0433Y-3.4437
X8.0761Y-3.8705
X8.0867Y-1.9251
X8.1098Y-3.4366
X8.3768Y-2.6417
X8.5856Y-4.1271
X8.8294Y-1.8207
X8.8525Y-3.3322
X9.0045Y-3.74
X9.1195Y-2.5373
X9.5721Y-1.7163
X9.5952Y-3.2278
X9.6996Y-3.9705
X9.8622Y-2.4329
X10.3148Y-1.6119
X10.3379Y-3.1234
X10.6049Y-2.3285
X11.197Y-1.548
X11.3133Y-3.048
X11.3958Y-2.298
X11.4258Y-3.798
T1
G00X6.8214Y-3.4384
M15
G01X6.8285Y-3.3877
M16
G05
G00X7.2581Y-3.4997
M15
G01X7.2652Y-3.449
M16
G05
G00X7.8951Y-3.4926
M15
G01X7.8879Y-3.4419
M16
G05
G00X8.3317Y-3.4312
M15
G01X8.3246Y-3.3805
M16
G05
T0
M30
