%TF.GenerationSoftware,KiCad,Pcbnew,(6.0.1)*%
%TF.CreationDate,2022-01-24T11:33:20-05:00*%
%TF.ProjectId,QALBLE,51414c42-4c45-42e6-9b69-6361645f7063,rev?*%
%TF.SameCoordinates,Original*%
%TF.FileFunction,Profile,NP*%
%FSLAX46Y46*%
G04 Gerber Fmt 4.6, Leading zero omitted, Abs format (unit mm)*
G04 Created by KiCad (PCBNEW (6.0.1)) date 2022-01-24 11:33:20*
%MOMM*%
%LPD*%
G01*
G04 APERTURE LIST*
%TA.AperFunction,Profile*%
%ADD10C,0.200000*%
%TD*%
G04 APERTURE END LIST*
D10*
X181798691Y-118222817D02*
X201798674Y-118222821D01*
X302452879Y-30319983D02*
G75*
G03*
X300452878Y-28319986I-1999999J-2D01*
G01*
X184535625Y-38762501D02*
X184535627Y-29319990D01*
X184535627Y-29319990D02*
G75*
G03*
X183535637Y-28319986I-999997J7D01*
G01*
X278309115Y-107469994D02*
X300452882Y-107469984D01*
X183535628Y-28319988D02*
X79618376Y-28319983D01*
X300452873Y-28319980D02*
X196535626Y-28319990D01*
X201798674Y-118222821D02*
X278309115Y-107469994D01*
X105288276Y-107469990D02*
X181798691Y-118222817D01*
X194535629Y-39762501D02*
G75*
G03*
X195535625Y-38762499I-3J999999D01*
G01*
X302452882Y-105469975D02*
X302452879Y-30319983D01*
X300452882Y-107469984D02*
G75*
G03*
X302452883Y-105469973I-5J2000006D01*
G01*
X79618382Y-107469973D02*
X105288276Y-107469990D01*
X195535627Y-29319988D02*
X195535621Y-38762501D01*
X77618387Y-30320002D02*
X77618388Y-105469986D01*
X196535626Y-28319990D02*
G75*
G03*
X195535633Y-29319985I1J-999994D01*
G01*
X184535625Y-38762501D02*
G75*
G03*
X185535626Y-39762500I1000000J1D01*
G01*
X194535629Y-39762501D02*
X185535625Y-39762501D01*
X79618376Y-28319983D02*
G75*
G03*
X77618378Y-30320001I10J-2000008D01*
G01*
X77618388Y-105469986D02*
G75*
G03*
X79618382Y-107469968I1999988J6D01*
G01*
M02*
