M48
; DRILL file {KiCad (6.0.1)} date Mon Jan 24 11:32:53 2022
; FORMAT={-:-/ absolute / inch / decimal}
; #@! TF.CreationDate,2022-01-24T11:32:53-05:00
; #@! TF.GenerationSoftware,Kicad,Pcbnew,(6.0.1)
; #@! TF.FileFunction,Plated,1,2,PTH
FMAT,2
INCH
; #@! TA.AperFunction,Plated,PTH,ViaDrill
T1C0.0157
; #@! TA.AperFunction,Plated,PTH,ComponentDrill
T2C0.0354
; #@! TA.AperFunction,Plated,PTH,ComponentDrill
T3C0.0394
; #@! TA.AperFunction,Plated,PTH,ComponentDrill
T4C0.0433
; #@! TA.AperFunction,Plated,PTH,ComponentDrill
T5C0.0579
; #@! TA.AperFunction,Plated,PTH,ComponentDrill
T6C0.0591
%
G90
G05
T1
X4.3296Y-2.2334
X5.0746Y-2.3384
X5.8096Y-2.4434
X6.5596Y-2.5484
X7.0298Y-3.6549
X7.0908Y-2.2378
X7.1254Y-2.273
X7.2946Y-3.3734
X7.7047Y-3.6485
X7.7366Y-4.3254
X7.8334Y-2.2378
X7.8345Y-2.5168
X7.8646Y-1.3984
X7.9209Y-3.8042
X8.7162Y-1.6253
X8.8796Y-2.5034
X9.0956Y-1.5664
X9.6246Y-2.3984
X9.8383Y-1.462
T2
X10.653Y-1.2043
X10.7318Y-1.2043
X10.8105Y-1.2043
T3
X3.9033Y-3.6445
X3.9033Y-3.9516
X4.1387Y-2.5286
X4.1503Y-1.7729
X4.1815Y-2.2245
X4.193Y-1.4688
X4.4188Y-3.2301
X4.4616Y-2.926
X4.8034Y-1.8666
X4.8461Y-1.5625
X4.8847Y-2.6354
X4.9274Y-2.3313
X5.1651Y-3.3348
X5.2078Y-3.0307
X5.5461Y-1.971
X5.5888Y-1.6669
X5.6177Y-4.1558
X5.6274Y-2.7398
X5.6604Y-3.8517
X5.6701Y-2.4357
X5.9078Y-3.4392
X5.9505Y-3.1351
X6.2888Y-2.0754
X6.3315Y-1.7713
X6.3701Y-2.8442
X6.4128Y-2.5401
X6.6505Y-3.5435
X6.6932Y-3.2394
X6.8246Y-4.3254
X6.8673Y-4.0213
X6.9047Y-3.7224
X6.9842Y-3.1571
X7.0022Y-3.7361
X7.0315Y-2.1798
X7.0742Y-1.8757
X7.0997Y-3.7498
X7.1128Y-2.9486
X7.1555Y-2.6445
X7.1791Y-3.1845
X7.4241Y-3.6523
X7.4459Y-2.6479
X7.4668Y-3.3482
X7.5459Y-2.6479
X7.974Y-3.1773
X8.0534Y-3.7427
X8.1509Y-3.729
X8.1689Y-3.1499
X8.2484Y-3.7153
X8.4498Y-1.8137
X8.4598Y-3.2323
X8.4925Y-2.1178
X8.5025Y-3.5364
X8.7398Y-2.5303
X8.7826Y-2.8344
X8.9355Y-3.9228
X8.9783Y-4.2269
X9.1925Y-1.7093
X9.2025Y-3.1279
X9.2352Y-2.0134
X9.2452Y-3.432
X9.4825Y-2.4259
X9.5253Y-2.73
X9.9352Y-1.6049
X9.9452Y-3.0236
X9.9779Y-1.909
X9.9879Y-3.3277
X10.0496Y-3.7663
X10.0923Y-4.0704
X10.2252Y-2.3215
X10.268Y-2.6256
X10.6779Y-1.5005
X10.6879Y-2.9192
X10.7206Y-1.8046
X10.7306Y-3.2233
X10.9679Y-2.2171
X11.0107Y-2.5212
X11.572Y-1.4882
X11.572Y-1.7953
X11.6883Y-2.8945
X11.6883Y-3.2016
X11.7708Y-2.2382
X11.7708Y-2.5453
X11.8008Y-3.6445
X11.8008Y-3.9516
T4
X7.1817Y-1.165
X7.1817Y-1.265
X7.1817Y-1.365
X7.1817Y-1.465
X7.1817Y-1.565
X7.1817Y-1.665
X7.1817Y-1.765
X7.1817Y-1.865
X7.1817Y-1.965
X7.1817Y-2.065
X7.1817Y-2.165
X7.1817Y-2.265
X7.1817Y-2.365
X7.1817Y-2.465
X7.7817Y-1.165
X7.7817Y-1.265
X7.7817Y-1.365
X7.7817Y-1.465
X7.7817Y-1.565
X7.7817Y-1.665
X7.7817Y-1.765
X7.7817Y-1.865
X7.7817Y-1.965
X7.7817Y-2.065
X7.7817Y-2.165
X7.7817Y-2.265
X7.7817Y-2.365
X7.7817Y-2.465
X8.3286Y-1.665
X8.4286Y-1.665
X8.5286Y-1.665
T5
X3.3783Y-3.698
X3.517Y-2.198
X3.5283Y-1.448
X3.592Y-2.948
X3.6283Y-3.598
X3.767Y-2.098
X3.7783Y-1.348
X3.842Y-2.848
X4.3322Y-1.447
X4.4136Y-2.2158
X4.5937Y-1.3827
X4.6751Y-2.1515
X4.6806Y-3.0107
X4.9421Y-2.9464
X5.075Y-1.5514
X5.1332Y-3.8316
X5.1563Y-2.3202
X5.3365Y-1.4871
X5.3947Y-3.7674
X5.4178Y-2.2559
X5.4233Y-3.115
X5.6848Y-3.0508
X5.8177Y-1.6557
X5.899Y-2.4245
X6.0792Y-1.5915
X6.1605Y-2.3603
X6.166Y-3.2194
X6.3401Y-4.0013
X6.4275Y-3.1552
X6.5604Y-1.7601
X6.6016Y-3.937
X6.6417Y-2.5289
X6.8219Y-1.6959
X6.9032Y-2.4647
X6.9087Y-3.3238
X7.1702Y-3.2596
X7.9243Y-1.8469
X7.9474Y-3.3584
X8.1579Y-1.7131
X8.181Y-3.2246
X8.2143Y-2.5635
X8.4231Y-4.0489
X8.448Y-2.4297
X8.6567Y-3.9151
X8.667Y-1.7425
X8.6901Y-3.254
X8.9006Y-1.6087
X8.9237Y-3.1202
X8.957Y-2.4591
X9.1907Y-2.3253
X9.4097Y-1.6381
X9.4328Y-3.1496
X9.5371Y-3.8923
X9.6433Y-1.5043
X9.6664Y-3.0158
X9.6997Y-2.3548
X9.7708Y-3.7585
X9.9334Y-2.2209
X10.1524Y-1.5338
X10.1755Y-3.0453
X10.386Y-1.3999
X10.4091Y-2.9114
X10.4424Y-2.2504
X10.6761Y-2.1166
X11.047Y-1.448
X11.1633Y-2.948
X11.2458Y-2.198
X11.2758Y-3.698
X11.297Y-1.348
X11.4133Y-2.848
X11.4958Y-2.098
X11.5258Y-3.598
T6
X10.5704Y-1.2043
X10.8932Y-1.2043
T0
M30
